<svg data-v-0dd9719b="" version="1.0" xmlns="http://www.w3.org/2000/svg" xmlns:xlink="http://www.w3.org/1999/xlink" width="100%" height="100%" viewBox="0 0 340.000000 250.000000" preserveAspectRatio="xMidYMid meet" color-interpolation-filters="sRGB" style="margin: auto;"> <rect data-v-0dd9719b="" x="0" y="0" width="100%" height="100%" fill="#fff" fill-opacity="1" class="background"></rect> <rect data-v-0dd9719b="" x="0" y="0" width="100%" height="100%" fill="url(#watermark)" fill-opacity="1" class="watermarklayer"></rect> <g data-v-0dd9719b="" fill="#00a5a9" class="icon-text-wrapper icon-svg-group iconsvg" transform="translate(55.970001220703125,96.98356437683105)"><g class="iconsvg-imagesvg" transform="translate(0,0)"><g><rect fill="#00a5a9" fill-opacity="0" stroke-width="2" x="0" y="0" width="60" height="56.032872618602916" class="image-rect"></rect> <svg x="0" y="0" width="60" height="56.032872618602916" filtersec="colorsb924272327" class="image-svg-svg primary" style="overflow: visible;"><svg xmlns="http://www.w3.org/2000/svg" viewBox="13.677627563476562 89.5285873413086 1476.3446044921875 1378.7261962890625"><g fill-rule="evenodd" clip-rule="evenodd"><path fill="#F08D00" d="M358.406 181.943C550.705 70.924 774.3 63.149 965.028 141.368l-57.756 33.342c-167.65-56.601-357.884-43.599-523.129 51.804-305.012 176.1-409.561 566.267-233.459 871.279 176.096 305.007 566.264 409.55 871.276 233.453 185.105-106.868 296.369-292.59 315.869-490.267l53.858-31.089c-10.432 226.913-132.717 443.941-343.995 565.929-329.625 190.309-751.274 77.33-941.577-252.3-190.313-329.618-77.328-751.268 252.291-941.576zm699.421 5.909l-51.649 29.82a637.01 637.01 0 0 1 84.719 54.722l47.961-27.691a686.894 686.894 0 0 0-81.031-56.851zm147.339 118.633l-45.885 26.491c21.022 21.533 40.692 44.789 58.827 69.669l44.813-25.873a687.636 687.636 0 0 0-57.755-70.287zm103.789 143.775l-44.605 25.751a639.248 639.248 0 0 1 37.178 82.169l45.185-26.085a690.8 690.8 0 0 0-37.758-81.835zm64.195 166.634l-46.629 26.921a633.982 633.982 0 0 1 13.22 95.999l49.409-28.525a685.037 685.037 0 0 0-16-94.395z"></path><path fill="#00A5A9" d="M413.555 277.454c69.461-40.106 143.791-64.161 218.694-73.335-29.125 38.673-53.036 80.618-71.49 124.693L169.17 554.897c47.212-112.791 130.338-211.603 244.385-277.443zm630.931-181.966L540.023 386.74 230.588 565.392l-82.155 47.433c-16.611 55.521-24.915 113.473-24.395 171.828l391.585-226.088a581.895 581.895 0 0 1 2.5-59.114L1153.08 132.86a582.853 582.853 0 0 0-108.594-37.372zm198.664 89.001L517.768 603.288 318.795 718.167 126.178 829.375a574.869 574.869 0 0 0 30.16 140.325l391.59-226.085a575.151 575.151 0 0 1-14.774-49.142l781.316-451.095a576.018 576.018 0 0 0-71.32-58.889zm131.619 127.706L562.554 781.127l-155.556 89.811-236.034 136.274a581.113 581.113 0 0 0 30.659 61.169c11.552 20.015 24.156 39.053 37.64 57.135l391.596-226.085a589.923 589.923 0 0 1-28.212-41.383l818.67-472.66c-2.883-5.38-1.587-3.39-8.903-16.059-7.316-12.669-24.156-39.047-37.645-57.134zm82.93 155.819l-801.665 462.84-160.828 92.858-230.763 133.228a574.66 574.66 0 0 0 106.449 96.282l391.59-226.085a576.151 576.151 0 0 1-42.758-32.99l760.946-439.333a574.74 574.74 0 0 0-22.971-86.8zm32.3 185.047a580.476 580.476 0 0 1-8.638 105.055l-585.923 338.286a584.178 584.178 0 0 0 65.703 19.738l-391.59 226.085c-56.381-13.378-110.733-35.155-160.998-64.789l174.854-100.954 216.736-125.131 689.856-398.29zm-324.587 474.515c-45.396 60.283-103.396 112.623-172.863 152.732-114.035 65.835-241.178 88.43-362.46 72.923l391.591-226.085c47.397 6.062 95.681 6.323 143.732.43z"></path></g></svg></svg> <!----></g></g> <g transform="translate(67,4.345186233520508)"><g data-gra="path-name" fill-rule="" class="tp-name iconsvg-namesvg" transform="translate(0,0)"><g transform="scale(1)"><g><path d="M7.42 0.22L18.45-1.08C19.26-1.17 19.71-1.71 19.71-2.52L19.66-4.05C19.66-5 19.17-5.44 18.22-5.31L15.48-5C14.89-4.91 14.54-5.22 14.54-5.8L14.54-13.99C14.54-14.58 14.85-14.89 15.43-14.89L37.13-14.89C37.98-14.89 38.48-15.39 38.48-16.25L38.48-17.82C38.48-18.68 37.98-19.17 37.13-19.17L27-19.17C26.23-19.17 25.96-19.71 26.46-20.29L34.47-29.47C35.23-30.33 34.88-31.14 33.7-31.14L27.49-31.14C26.82-31.14 26.28-30.91 25.83-30.38L16.56-19.66C16.25-19.3 15.88-19.17 15.43-19.17L15.34-19.17C14.85-19.17 14.54-19.48 14.54-20.07L14.54-30.64C14.54-31.5 14.04-31.99 13.18-31.99L6.21-31.99C5.13-31.99 4.72-31.27 5.31-30.38L5.67-29.79C5.89-29.38 5.98-29.11 5.98-28.71L5.98-20.07C5.98-19.48 5.67-19.17 5.08-19.17L3.92-19.17C3.06-19.17 2.56-18.68 2.56-17.82L2.56-16.25C2.56-15.39 3.06-14.89 3.92-14.89L5.08-14.89C5.67-14.89 5.98-14.58 5.98-13.99L5.98-1.03C5.98-0.14 6.52 0.32 7.42 0.22ZM22.5-11.56L30.2-0.45C30.6 0.18 31.09 0.4 31.81 0.4L38.2 0.4C39.28 0.4 39.69-0.27 39.06-1.21L31.36-12.33C30.96-12.96 30.46-13.18 29.74-13.18L23.36-13.18C22.27-13.18 21.87-12.51 22.5-11.56ZM64.62-7.6L69.39-7.6C70.25-7.6 70.74-8.1 70.74-8.96L70.74-30.64C70.74-31.5 70.25-31.99 69.39-31.99L63.49-31.99C62.41-31.99 62.01-31.27 62.59-30.38L62.95-29.79C63.18-29.38 63.27-29.11 63.27-28.71L63.27-8.96C63.27-8.1 63.77-7.6 64.62-7.6ZM55.35-2.79L55.35-1.03C55.35-0.18 55.84 0.32 56.7 0.32L75.73 0.32C76.54 0.32 77.04-0.09 77.22-0.85L79.97-12.82C80.19-13.72 79.74-14.31 78.79-14.31L75.33-14.31C74.52-14.31 74.03-13.95 73.84-13.14L71.78-4.91C71.64-4.41 71.32-4.14 70.78-4.14L56.7-4.14C55.84-4.14 55.35-3.65 55.35-2.79ZM51.25-0.81L53.28-10.84C53.46-11.74 53.05-12.33 52.11-12.33L47.11-12.33C46.3-12.33 45.85-11.92 45.67-11.12L43.65-1.08C43.47-0.18 43.88 0.4 44.82 0.4L49.81 0.4C50.63 0.4 51.07-0.04 51.25-0.81ZM60.88-28.93L57.55-28.93C56.7-28.93 56.2-28.48 56.16-27.63L55.13-14.58C55.03-13.68 55.53-13.18 56.43-13.18L59.8-13.18C60.66-13.18 61.16-13.63 61.2-14.49L62.19-27.54C62.23-28.44 61.78-28.93 60.88-28.93ZM75.96-15.71L79.38-15.71C80.32-15.71 80.78-16.29 80.59-17.19L78.25-27.77C78.07-28.53 77.58-28.93 76.77-28.93L73.35-28.93C72.41-28.93 71.95-28.35 72.13-27.45L74.47-16.88C74.66-16.11 75.15-15.71 75.96-15.71ZM53.28-24.93L52.16-29.97C51.97-30.73 51.48-31.14 50.67-31.14L45.72-31.14C44.77-31.14 44.32-30.55 44.5-29.65L45.63-24.61C45.81-23.85 46.3-23.45 47.11-23.45L52.06-23.45C53.01-23.45 53.46-24.03 53.28-24.93ZM53.28-15.52L52.16-20.56C51.97-21.33 51.48-21.73 50.67-21.73L45.72-21.73C44.77-21.73 44.32-21.15 44.5-20.25L45.63-15.21C45.81-14.45 46.3-14.04 47.11-14.04L52.06-14.04C53.01-14.04 53.46-14.63 53.28-15.52ZM99.41-3.33L97.74-1.3C97.02-0.4 97.38 0.36 98.5 0.36L104.94 0.36C106.6 0.36 107.82-0.9 107.82-2.65L107.82-24.61C107.82-25.47 107.32-25.96 106.47-25.96L89.46-25.96C88.6-25.96 88.11-25.47 88.11-24.61L88.11-23.18C88.11-22.32 88.6-21.82 89.46-21.82L98.91-21.82C99.5-21.82 99.81-21.51 99.81-20.93L99.81-4.46C99.81-4 99.67-3.69 99.41-3.33ZM95.53-27.4L113.31-26.46C114.16-26.41 114.7-26.91 114.7-27.77L114.7-29.43C114.7-30.29 114.25-30.78 113.4-30.82L95.63-31.81C94.77-31.86 94.23-31.36 94.23-30.51L94.23-28.8C94.23-27.95 94.68-27.45 95.53-27.4ZM85.32-18.63L85.32-17.19C85.32-16.34 85.81-15.84 86.67-15.84L88.06-15.84C88.69-15.84 89.01-15.43 88.83-14.85L85.23-2.11C84.96-1.21 85.45-0.58 86.4-0.58L92.16-0.58C92.92-0.58 93.47-0.94 93.69-1.75L98.14-18.45C98.37-19.35 97.92-19.98 96.97-19.98L86.67-19.98C85.81-19.98 85.32-19.48 85.32-18.63ZM111.69-21.2L109.26-16.7C108.94-16.06 108.85-15.52 109.08-14.89L113.31-2.29C113.53-1.57 114.07-1.21 114.84-1.21L120.6-1.21C121.59-1.21 122.04-1.84 121.72-2.75L117.54-15.21C117.41-15.62 117.41-16.02 117.63-16.43L119.88-20.52C120.38-21.42 119.92-22.14 118.89-22.14L113.27-22.14C112.54-22.14 112.05-21.82 111.69-21.2ZM141.39-13.86L141.39-0.99C141.39-0.14 141.88 0.36 142.74 0.36L162.27 0.36C163.13 0.36 163.62-0.14 163.62-0.99L163.62-13.86C163.62-14.71 163.13-15.21 162.27-15.21L142.74-15.21C141.88-15.21 141.39-14.71 141.39-13.86ZM139.27-13.95L137.74-15.57C137.43-15.93 137.29-16.16 137.29-16.38 137.29-16.61 137.38-16.79 137.61-17.19L139.5-20.29C139.81-20.84 139.95-21.33 139.95-21.96L139.95-24.84C139.95-25.7 139.45-26.19 138.6-26.19L127.98-26.19C127.12-26.19 126.63-25.7 126.63-24.84L126.63-23.54C126.63-22.68 127.12-22.18 127.98-22.18L132.34-22.18C133.06-22.18 133.29-21.69 132.93-21.11L127.17-11.79C126.58-10.89 126.99-10.17 128.07-10.17L129.55-10.17C130.14-10.17 130.45-9.86 130.45-9.27L130.45-0.99C130.45-0.14 130.95 0.36 131.8 0.36L135.94 0.36C136.8 0.36 137.29-0.14 137.29-0.99L137.29-6.52C137.29-7.33 137.88-7.51 138.42-6.97L138.64-6.75C139.32-6.03 139.99-6.52 139.99-7.74L139.95-12.29C139.95-13 139.72-13.46 139.27-13.95ZM142.47-24.84L142.47-18.04C142.47-17.19 142.96-16.7 143.82-16.7L160.51-16.7C161.37-16.7 161.86-17.19 161.86-18.04L161.86-24.84C161.86-25.7 161.37-26.19 160.51-26.19L143.82-26.19C142.96-26.19 142.47-25.7 142.47-24.84ZM141.12-29.97L141.12-29.02C141.12-28.17 141.61-27.68 142.47-27.68L162-27.68C162.85-27.68 163.35-28.17 163.35-29.02L163.35-29.97C163.35-30.82 162.85-31.32 162-31.32L142.47-31.32C141.61-31.32 141.12-30.82 141.12-29.97ZM135.67-31.9L131.22-31.9C130.36-31.9 129.78-31.68 129.73-31.32 129.69-30.91 130.05-30.69 130.19-30.29L130.95-28.39C131.22-27.72 131.76-27.36 132.52-27.36L136.89-27.36C137.88-27.36 138.28-27.99 137.92-28.93L137.2-30.82C136.94-31.59 136.44-31.9 135.67-31.9ZM149.35-20.88L149.35-22.14C149.35-22.72 149.67-23.04 150.25-23.04L154.44-23.04C155.02-23.04 155.34-22.72 155.34-22.14L155.34-20.88C155.34-20.29 155.02-19.98 154.44-19.98L150.25-19.98C149.67-19.98 149.35-20.29 149.35-20.88ZM147.64-4.5L147.64-5.31C147.64-5.89 147.96-6.21 148.54-6.21L149.44-6.21C150.03-6.21 150.34-5.89 150.34-5.31L150.34-4.5C150.34-3.92 150.03-3.6 149.44-3.6L148.54-3.6C147.96-3.6 147.64-3.92 147.64-4.5ZM155.07-4.5L155.07-5.31C155.07-5.89 155.38-6.21 155.97-6.21L156.78-6.21C157.36-6.21 157.68-5.89 157.68-5.31L157.68-4.5C157.68-3.92 157.36-3.6 156.78-3.6L155.97-3.6C155.38-3.6 155.07-3.92 155.07-4.5ZM148.54-11.74L149.44-11.74C150.03-11.74 150.34-11.43 150.34-10.84L150.34-10.13C150.34-9.54 150.03-9.22 149.44-9.22L148.54-9.22C147.96-9.22 147.64-9.54 147.64-10.13L147.64-10.84C147.64-11.43 147.96-11.74 148.54-11.74ZM157.68-10.84L157.68-10.13C157.68-9.54 157.36-9.22 156.78-9.22L155.97-9.22C155.38-9.22 155.07-9.54 155.07-10.13L155.07-10.84C155.07-11.43 155.38-11.74 155.97-11.74L156.78-11.74C157.36-11.74 157.68-11.43 157.68-10.84Z" transform="translate(-2.559999942779541, 31.989999771118164)"></path></g> <!----> <!----> <!----> <!----> <!----> <!----> <!----></g></g> <g data-gra="path-slogan" fill-rule="" class="tp-slogan iconsvg-slogansvg" fill="#00a5a9" transform="translate(20.134998321533203,38.38999938964844)"><!----> <!----> <g transform="scale(1, 1)"><g transform="scale(1)"><path d="M8.06-6.05L8.06-6.05L6.94-6.05Q6.52-7.78 4.55-7.83L4.55-7.83Q1.83-7.69 1.73-4.36L1.73-4.36Q1.73-0.80 4.59-0.80L4.59-0.80Q6.56-0.84 7.03-3.19L7.03-3.19L8.16-3.19Q7.64 0.05 4.36 0.14L4.36 0.14Q0.61 0 0.52-4.31L0.52-4.31Q0.70-8.63 4.55-8.81L4.55-8.81Q7.59-8.72 8.06-6.05ZM10.69-5.06L15.19-5.06L15.19-8.58L16.36-8.58L16.36 0L15.19 0L15.19-3.98L10.69-3.98L10.69 0L9.52 0L9.52-8.58L10.69-8.58L10.69-5.06ZM23.81 0L22.97-2.48L19.50-2.48L18.61 0L17.44 0L20.67-8.58L21.98-8.58L25.08 0L23.81 0ZM21.23-7.31L19.88-3.52L22.55-3.52L21.28-7.31L21.23-7.31ZM27.52-8.58L31.83-1.64L31.83-8.58L32.95-8.58L32.95 0L31.64 0L27.28-6.94L27.23-6.94L27.23 0L26.11 0L26.11-8.58L27.52-8.58ZM41.16-3.61L38.53-3.61L38.53-4.59L42.28-4.59L42.28 0L41.53 0L41.25-1.08Q40.27 0.09 38.44 0.14L38.44 0.14Q36.70 0.14 35.77-0.75L35.77-0.75Q34.36-2.06 34.41-4.36L34.41-4.36Q34.73-8.63 38.48-8.81L38.48-8.81Q41.67-8.63 42.14-6L42.14-6L41.02-6Q40.55-7.78 38.44-7.83L38.44-7.83Q35.77-7.64 35.63-4.31L35.63-4.31Q35.63-0.75 38.48-0.75L38.48-0.75Q39.52-0.75 40.27-1.31L40.27-1.31Q41.20-2.06 41.16-3.61L41.16-3.61ZM50.34-6.09L50.34-6.09L49.27-6.09Q49.17-7.73 47.11-7.83L47.11-7.83Q45.19-7.78 45.19-6.33L45.19-6.33Q45.19-5.39 46.22-5.25L46.22-5.25L48.66-4.69Q50.58-4.22 50.58-2.34L50.58-2.34Q50.53 0.05 47.20 0.14L47.20 0.14Q45.38 0.14 44.63-0.61L44.63-0.61Q43.69-1.31 43.73-2.77L43.73-2.77L44.86-2.77Q44.91-0.80 47.20-0.75L47.20-0.75Q49.45-0.80 49.50-2.20L49.50-2.20Q49.69-3.38 47.63-3.75L47.63-3.75L45.84-4.13Q44.02-4.64 44.02-6.19L44.02-6.19Q44.16-8.72 47.02-8.81L47.02-8.81Q50.25-8.81 50.34-6.09ZM53.20-5.06L57.70-5.06L57.70-8.58L58.88-8.58L58.88 0L57.70 0L57.70-3.98L53.20-3.98L53.20 0L52.03 0L52.03-8.58L53.20-8.58L53.20-5.06ZM66.33 0L65.48-2.48L62.02-2.48L61.13 0L59.95 0L63.19-8.58L64.50-8.58L67.59 0L66.33 0ZM63.75-7.31L62.39-3.52L65.06-3.52L63.80-7.31L63.75-7.31ZM78.89-8.58L75.66-3.47L75.66 0L74.48 0L74.48-3.47L71.25-8.58L72.61-8.58L75.05-4.45L77.53-8.58L78.89-8.58ZM86.72-4.27L86.72-4.27Q86.53-7.64 83.72-7.83L83.72-7.83Q80.86-7.69 80.72-4.27L80.72-4.27Q80.86-0.94 83.72-0.80L83.72-0.80Q86.53-0.98 86.72-4.27ZM87.89-4.27L87.89-4.27Q87.61 0 83.72 0.14L83.72 0.14Q79.78 0 79.50-4.27L79.50-4.27Q79.73-8.72 83.72-8.81L83.72-8.81Q87.61-8.67 87.89-4.27ZM90.66-8.58L94.97-1.64L94.97-8.58L96.09-8.58L96.09 0L94.78 0L90.42-6.94L90.38-6.94L90.38 0L89.25 0L89.25-8.58L90.66-8.58ZM104.30-3.61L101.67-3.61L101.67-4.59L105.42-4.59L105.42 0L104.67 0L104.39-1.08Q103.41 0.09 101.58 0.14L101.58 0.14Q99.84 0.14 98.91-0.75L98.91-0.75Q97.50-2.06 97.55-4.36L97.55-4.36Q97.88-8.63 101.63-8.81L101.63-8.81Q104.81-8.63 105.28-6L105.28-6L104.16-6Q103.69-7.78 101.58-7.83L101.58-7.83Q98.91-7.64 98.77-4.31L98.77-4.31Q98.77-0.75 101.63-0.75L101.63-0.75Q102.66-0.75 103.41-1.31L103.41-1.31Q104.34-2.06 104.30-3.61L104.30-3.61ZM112.73-3.89L108.52-3.89L108.52 0L107.34 0L107.34-8.58L113.30-8.58L113.30-7.59L108.52-7.59L108.52-4.92L112.73-4.92L112.73-3.89ZM120.14-3.19L120.14-8.58L121.31-8.58L121.31-3.05Q121.17 0.05 117.80 0.14L117.80 0.14Q114.66 0.05 114.52-2.86L114.52-2.86L114.52-8.58L115.69-8.58L115.69-3.19Q115.73-0.84 117.84-0.80L117.84-0.80Q120.14-0.84 120.14-3.19L120.14-3.19Z" transform="translate(-0.515625, 8.8125)"></path></g></g></g></g></g><defs v-gra="od"></defs></svg>